<svg xmlns="http://www.w3.org/2000/svg" xmlns:xlink="http://www.w3.org/1999/xlink" contentStyleType="text/css" data-diagram-type="CLASS" height="179px" preserveAspectRatio="none" style="width:251px;height:179px;background:#FFFFFF;" version="1.1" viewBox="0 0 251 179" width="251px" zoomAndPan="magnify"><defs/><g><!--cluster MarcoConsiglio--><g class="cluster" data-entity="MarcoConsiglio" data-source-line="15" data-uid="ent0004" id="cluster_MarcoConsiglio"><path d="M16.5,4 L137.9287,4 A3.75,3.75 0 0 1 140.4287,6.5 L147.4287,26.2969 L241.5,26.2969 A2.5,2.5 0 0 1 244,28.7969 L244,169.5 A2.5,2.5 0 0 1 241.5,172 L16.5,172 A2.5,2.5 0 0 1 14,169.5 L14,6.5 A2.5,2.5 0 0 1 16.5,4" fill="none" style="stroke:#000000;stroke-width:1.5;"/><line style="stroke:#000000;stroke-width:1.5;" x1="14" x2="147.4287" y1="26.2969" y2="26.2969"/><text fill="#000000" font-family="sans-serif" font-size="14" font-weight="bold" lengthAdjust="spacing" textLength="120.4287" x="18" y="18.9951">MarcoConsiglio</text></g><!--cluster FakerPhpNumberHelpers--><g class="cluster" data-entity="FakerPhpNumberHelpers" data-source-line="14" data-uid="ent0002" id="cluster_FakerPhpNumberHelpers"><path d="M24.5,31 L223.9268,31 A3.75,3.75 0 0 1 226.4268,33.5 L233.4268,53.2969 L233.5,53.2969 A2.5,2.5 0 0 1 236,55.7969 L236,161.5 A2.5,2.5 0 0 1 233.5,164 L24.5,164 A2.5,2.5 0 0 1 22,161.5 L22,33.5 A2.5,2.5 0 0 1 24.5,31" fill="none" style="stroke:#000000;stroke-width:1.5;"/><line style="stroke:#000000;stroke-width:1.5;" x1="22" x2="233.4268" y1="53.2969" y2="53.2969"/><text fill="#000000" font-family="sans-serif" font-size="14" font-weight="bold" lengthAdjust="spacing" textLength="198.4268" x="26" y="45.9951">FakerPhpNumberHelpers</text></g><!--class WithFakerHelpers__trait--><g class="entity" data-entity="WithFakerHelpers__trait" data-source-line="15" data-uid="ent0003" id="entity_WithFakerHelpers__trait"><rect fill="#F1F1F1" height="40.2656" rx="2.5" ry="2.5" style="stroke:#181818;stroke-width:0.5;" width="156.7832" x="50" y="58"/><ellipse cx="65" cy="78.1328" fill="#FF7700" rx="11" ry="11" style="stroke:#181818;stroke-width:1;"/><path d="M65.8438,84.8828 L63.3906,84.8828 L63.3906,74.6328 L60.25,74.6328 L60.25,72.4922 L68.9844,72.4922 L68.9844,74.6328 L65.8438,74.6328 L65.8438,84.8828 Z " fill="#000000"/><text fill="#000000" font-family="sans-serif" font-size="12" font-style="italic" lengthAdjust="spacing" textLength="42.3398" x="120.2217" y="74.1387">&#171;Trait&#187;</text><text fill="#000000" font-family="sans-serif" font-size="14" lengthAdjust="spacing" textLength="124.7832" x="79" y="89.9639">WithFakerHelpers</text></g><!--class WithStaticFakerHelpers__trait--><g class="entity" data-entity="WithStaticFakerHelpers__trait" data-source-line="19" data-uid="ent0005" id="entity_WithStaticFakerHelpers__trait"><rect fill="#F1F1F1" height="40.2656" rx="2.5" ry="2.5" style="stroke:#181818;stroke-width:0.5;" width="196.8145" x="30" y="116"/><ellipse cx="45" cy="136.1328" fill="#FF7700" rx="11" ry="11" style="stroke:#181818;stroke-width:1;"/><path d="M45.8438,142.8828 L43.3906,142.8828 L43.3906,132.6328 L40.25,132.6328 L40.25,130.4922 L48.9844,130.4922 L48.9844,132.6328 L45.8438,132.6328 L45.8438,142.8828 Z " fill="#000000"/><text fill="#000000" font-family="sans-serif" font-size="12" font-style="italic" lengthAdjust="spacing" textLength="42.3398" x="120.2373" y="132.1387">&#171;Trait&#187;</text><text fill="#000000" font-family="sans-serif" font-size="14" lengthAdjust="spacing" textLength="164.8145" x="59" y="147.9639">WithStaticFakerHelpers</text></g><!--SRC=[fOz1IyD048Nl-ol6zgBWeOhQIobefNXHX1Qy16HC9idGtPqmExK4wN-tBLLHAmJSu_i-thmzQXIhWE2nbQL12cGOqG50Md1iK370jQgi9k95eNzvTbLUd7_dc1k_ihKteWLf5n7pHQMoZCLUBdVli7pB62GMdSi__2utKes5h3XMKA9FvDpVw8juZcHjGo1gjRYQ2m8AZRKGABoG9kUfD301vQesA5XfiqsYIsGGCL1gCASPRUjiCotBdFkCuHurbud4n9LdoR8fBaWVw-PXkIs_8zziJi3RzYEGUqm9UazizKxRqnu09lYPFZ-R8XkCHd0yF-rFfyFXO702yrqu7kyhrsxz_p4pG-FyyAJVhFkmTm00]--></g></svg>