<svg xmlns="http://www.w3.org/2000/svg" xmlns:xlink="http://www.w3.org/1999/xlink" contentStyleType="text/css" data-diagram-type="CLASS" height="1673px" preserveAspectRatio="none" style="width:849px;height:1673px;background:#FFFFFF;" version="1.1" viewBox="0 0 849 1673" width="849px" zoomAndPan="magnify"><defs/><g><!--cluster MarcoConsiglio--><g class="cluster" data-entity="MarcoConsiglio" data-source-line="15" data-uid="ent0004" id="cluster_MarcoConsiglio"><path d="M16.5,4 L137.9287,4 A3.75,3.75 0 0 1 140.4287,6.5 L147.4287,26.2969 L840,26.2969 A2.5,2.5 0 0 1 842.5,28.7969 L842.5,1663.5 A2.5,2.5 0 0 1 840,1666 L16.5,1666 A2.5,2.5 0 0 1 14,1663.5 L14,6.5 A2.5,2.5 0 0 1 16.5,4" fill="none" style="stroke:#000000;stroke-width:1.5;"/><line style="stroke:#000000;stroke-width:1.5;" x1="14" x2="147.4287" y1="26.2969" y2="26.2969"/><text fill="#000000" font-family="sans-serif" font-size="14" font-weight="bold" lengthAdjust="spacing" textLength="120.4287" x="18" y="18.9951">MarcoConsiglio</text></g><!--cluster FakerPhpNumberHelpers--><g class="cluster" data-entity="FakerPhpNumberHelpers" data-source-line="14" data-uid="ent0002" id="cluster_FakerPhpNumberHelpers"><path d="M24.5,31 L223.9268,31 A3.75,3.75 0 0 1 226.4268,33.5 L233.4268,53.2969 L832,53.2969 A2.5,2.5 0 0 1 834.5,55.7969 L834.5,1655.5 A2.5,2.5 0 0 1 832,1658 L24.5,1658 A2.5,2.5 0 0 1 22,1655.5 L22,33.5 A2.5,2.5 0 0 1 24.5,31" fill="none" style="stroke:#000000;stroke-width:1.5;"/><line style="stroke:#000000;stroke-width:1.5;" x1="22" x2="233.4268" y1="53.2969" y2="53.2969"/><text fill="#000000" font-family="sans-serif" font-size="14" font-weight="bold" lengthAdjust="spacing" textLength="198.4268" x="26" y="45.9951">FakerPhpNumberHelpers</text></g><!--cluster Random--><g class="cluster" data-entity="Random" data-source-line="26" data-uid="ent0007" id="cluster_Random"><path d="M35,58 L100.4219,58 A3.75,3.75 0 0 1 102.9219,60.5 L109.9219,80.2969 L577,80.2969 A2.5,2.5 0 0 1 579.5,82.7969 L579.5,832.5 A2.5,2.5 0 0 1 577,835 L35,835 A2.5,2.5 0 0 1 32.5,832.5 L32.5,60.5 A2.5,2.5 0 0 1 35,58" fill="none" style="stroke:#000000;stroke-width:1.5;"/><line style="stroke:#000000;stroke-width:1.5;" x1="32.5" x2="109.9219" y1="80.2969" y2="80.2969"/><text fill="#000000" font-family="sans-serif" font-size="14" font-weight="bold" lengthAdjust="spacing" textLength="64.4219" x="36.5" y="72.9951">Random</text></g><!--cluster Float--><g class="cluster" data-entity="Float" data-source-line="30" data-uid="ent0009" id="cluster_Float"><path d="M205,360 L246.1201,360 A3.75,3.75 0 0 1 248.6201,362.5 L255.6201,382.2969 L569,382.2969 A2.5,2.5 0 0 1 571.5,384.7969 L571.5,824.5 A2.5,2.5 0 0 1 569,827 L205,827 A2.5,2.5 0 0 1 202.5,824.5 L202.5,362.5 A2.5,2.5 0 0 1 205,360" fill="none" style="stroke:#000000;stroke-width:1.5;"/><line style="stroke:#000000;stroke-width:1.5;" x1="202.5" x2="255.6201" y1="382.2969" y2="382.2969"/><text fill="#000000" font-family="sans-serif" font-size="14" font-weight="bold" lengthAdjust="spacing" textLength="40.1201" x="206.5" y="374.9951">Float</text></g><!--cluster Integer--><g class="cluster" data-entity="Integer" data-source-line="70" data-uid="ent0030" id="cluster_Integer"><path d="M205,85 L263.7842,85 A3.75,3.75 0 0 1 266.2842,87.5 L273.2842,107.2969 L566,107.2969 A2.5,2.5 0 0 1 568.5,109.7969 L568.5,349.5 A2.5,2.5 0 0 1 566,352 L205,352 A2.5,2.5 0 0 1 202.5,349.5 L202.5,87.5 A2.5,2.5 0 0 1 205,85" fill="none" style="stroke:#000000;stroke-width:1.5;"/><line style="stroke:#000000;stroke-width:1.5;" x1="202.5" x2="273.2842" y1="107.2969" y2="107.2969"/><text fill="#000000" font-family="sans-serif" font-size="14" font-weight="bold" lengthAdjust="spacing" textLength="57.7842" x="206.5" y="99.9951">Integer</text></g><!--cluster Validation--><g class="cluster" data-entity="Validation" data-source-line="94" data-uid="ent0043" id="cluster_Validation"><path d="M32.5,843 L113.9248,843 A3.75,3.75 0 0 1 116.4248,845.5 L123.4248,865.2969 L824,865.2969 A2.5,2.5 0 0 1 826.5,867.7969 L826.5,1557.5 A2.5,2.5 0 0 1 824,1560 L32.5,1560 A2.5,2.5 0 0 1 30,1557.5 L30,845.5 A2.5,2.5 0 0 1 32.5,843" fill="none" style="stroke:#000000;stroke-width:1.5;"/><line style="stroke:#000000;stroke-width:1.5;" x1="30" x2="123.4248" y1="865.2969" y2="865.2969"/><text fill="#000000" font-family="sans-serif" font-size="14" font-weight="bold" lengthAdjust="spacing" textLength="80.4248" x="34" y="857.9951">Validation</text></g><!--cluster Float--><g class="cluster" data-entity="Float" data-source-line="98" data-uid="ent0045" id="cluster_Float"><path d="M40.5,1185 L81.6201,1185 A3.75,3.75 0 0 1 84.1201,1187.5 L91.1201,1207.2969 L816,1207.2969 A2.5,2.5 0 0 1 818.5,1209.7969 L818.5,1549.5 A2.5,2.5 0 0 1 816,1552 L40.5,1552 A2.5,2.5 0 0 1 38,1549.5 L38,1187.5 A2.5,2.5 0 0 1 40.5,1185" fill="none" style="stroke:#000000;stroke-width:1.5;"/><line style="stroke:#000000;stroke-width:1.5;" x1="38" x2="91.1201" y1="1207.2969" y2="1207.2969"/><text fill="#000000" font-family="sans-serif" font-size="14" font-weight="bold" lengthAdjust="spacing" textLength="40.1201" x="42" y="1199.9951">Float</text></g><!--cluster Integer--><g class="cluster" data-entity="Integer" data-source-line="146" data-uid="ent0070" id="cluster_Integer"><path d="M40.5,870 L99.2842,870 A3.75,3.75 0 0 1 101.7842,872.5 L108.7842,892.2969 L581,892.2969 A2.5,2.5 0 0 1 583.5,894.7969 L583.5,1134.5 A2.5,2.5 0 0 1 581,1137 L40.5,1137 A2.5,2.5 0 0 1 38,1134.5 L38,872.5 A2.5,2.5 0 0 1 40.5,870" fill="none" style="stroke:#000000;stroke-width:1.5;"/><line style="stroke:#000000;stroke-width:1.5;" x1="38" x2="108.7842" y1="892.2969" y2="892.2969"/><text fill="#000000" font-family="sans-serif" font-size="14" font-weight="bold" lengthAdjust="spacing" textLength="57.7842" x="42" y="884.9951">Integer</text></g><!--class FloatRange__class--><g class="entity" data-entity="FloatRange__class" data-source-line="15" data-uid="ent0003" id="entity_FloatRange__class"><rect fill="#F1F1F1" height="32" rx="2.5" ry="2.5" style="stroke:#181818;stroke-width:0.5;" width="111.2559" x="36.5" y="1618"/><ellipse cx="51.5" cy="1634" fill="#ADD1B2" rx="11" ry="11" style="stroke:#181818;stroke-width:1;"/><path d="M54.4688,1639.6406 Q53.8906,1639.9375 53.25,1640.0781 Q52.6094,1640.2344 51.9063,1640.2344 Q49.4063,1640.2344 48.0781,1638.5938 Q46.7656,1636.9375 46.7656,1633.8125 Q46.7656,1630.6875 48.0781,1629.0313 Q49.4063,1627.375 51.9063,1627.375 Q52.6094,1627.375 53.25,1627.5313 Q53.9063,1627.6875 54.4688,1627.9844 L54.4688,1630.7031 Q53.8438,1630.125 53.25,1629.8594 Q52.6563,1629.5781 52.0313,1629.5781 Q50.6875,1629.5781 50,1630.6563 Q49.3125,1631.7188 49.3125,1633.8125 Q49.3125,1635.9063 50,1636.9844 Q50.6875,1638.0469 52.0313,1638.0469 Q52.6563,1638.0469 53.25,1637.7813 Q53.8438,1637.5 54.4688,1636.9219 L54.4688,1639.6406 Z " fill="#000000"/><text fill="#000000" font-family="sans-serif" font-size="14" lengthAdjust="spacing" textLength="79.2559" x="65.5" y="1638.8467">FloatRange</text></g><!--class IntRange__class--><g class="entity" data-entity="IntRange__class" data-source-line="19" data-uid="ent0005" id="entity_IntRange__class"><rect fill="#F1F1F1" height="32" rx="2.5" ry="2.5" style="stroke:#181818;stroke-width:0.5;" width="95.1709" x="44.5" y="1568"/><ellipse cx="59.5" cy="1584" fill="#ADD1B2" rx="11" ry="11" style="stroke:#181818;stroke-width:1;"/><path d="M62.4688,1589.6406 Q61.8906,1589.9375 61.25,1590.0781 Q60.6094,1590.2344 59.9063,1590.2344 Q57.4063,1590.2344 56.0781,1588.5938 Q54.7656,1586.9375 54.7656,1583.8125 Q54.7656,1580.6875 56.0781,1579.0313 Q57.4063,1577.375 59.9063,1577.375 Q60.6094,1577.375 61.25,1577.5313 Q61.9063,1577.6875 62.4688,1577.9844 L62.4688,1580.7031 Q61.8438,1580.125 61.25,1579.8594 Q60.6563,1579.5781 60.0313,1579.5781 Q58.6875,1579.5781 58,1580.6563 Q57.3125,1581.7188 57.3125,1583.8125 Q57.3125,1585.9063 58,1586.9844 Q58.6875,1588.0469 60.0313,1588.0469 Q60.6563,1588.0469 61.25,1587.7813 Q61.8438,1587.5 62.4688,1586.9219 L62.4688,1589.6406 Z " fill="#000000"/><text fill="#000000" font-family="sans-serif" font-size="14" lengthAdjust="spacing" textLength="63.1709" x="73.5" y="1588.8467">IntRange</text></g><!--class WithFakerHelpers__trait--><g class="entity" data-entity="WithFakerHelpers__trait" data-source-line="23" data-uid="ent0006" id="entity_WithFakerHelpers__trait"><rect fill="#F1F1F1" height="40.2656" rx="2.5" ry="2.5" style="stroke:#181818;stroke-width:0.5;" width="156.7832" x="183.5" y="1610"/><ellipse cx="198.5" cy="1630.1328" fill="#FF7700" rx="11" ry="11" style="stroke:#181818;stroke-width:1;"/><path d="M199.3438,1636.8828 L196.8906,1636.8828 L196.8906,1626.6328 L193.75,1626.6328 L193.75,1624.4922 L202.4844,1624.4922 L202.4844,1626.6328 L199.3438,1626.6328 L199.3438,1636.8828 Z " fill="#000000"/><text fill="#000000" font-family="sans-serif" font-size="12" font-style="italic" lengthAdjust="spacing" textLength="42.3398" x="253.7217" y="1626.1387">&#171;Trait&#187;</text><text fill="#000000" font-family="sans-serif" font-size="14" lengthAdjust="spacing" textLength="124.7832" x="212.5" y="1641.9639">WithFakerHelpers</text></g><!--class Generator__class--><g class="entity" data-entity="Generator__class" data-source-line="27" data-uid="ent0008" id="entity_Generator__class"><rect fill="#F1F1F1" height="32" rx="2.5" ry="2.5" style="stroke:#181818;stroke-width:0.5;" width="103.0938" x="40.5" y="400"/><ellipse cx="55.5" cy="416" fill="#A9DCDF" rx="11" ry="11" style="stroke:#181818;stroke-width:1;"/><path d="M55.6094,411.3438 L54.4531,416.4219 L56.7813,416.4219 L55.6094,411.3438 Z M54.125,409.1094 L57.1094,409.1094 L60.4688,421.5 L58.0156,421.5 L57.25,418.4375 L53.9688,418.4375 L53.2188,421.5 L50.7813,421.5 L54.125,409.1094 Z " fill="#000000"/><text fill="#000000" font-family="sans-serif" font-size="14" font-style="italic" lengthAdjust="spacing" textLength="71.0938" x="69.5" y="420.8467">Generator</text></g><!--class Generator__class--><g class="entity" data-entity="Generator__class" data-source-line="31" data-uid="ent0010" id="entity_Generator__class"><rect fill="#F1F1F1" height="32" rx="2.5" ry="2.5" style="stroke:#181818;stroke-width:0.5;" width="103.0938" x="210.5" y="562"/><ellipse cx="225.5" cy="578" fill="#A9DCDF" rx="11" ry="11" style="stroke:#181818;stroke-width:1;"/><path d="M225.6094,573.3438 L224.4531,578.4219 L226.7813,578.4219 L225.6094,573.3438 Z M224.125,571.1094 L227.1094,571.1094 L230.4688,583.5 L228.0156,583.5 L227.25,580.4375 L223.9688,580.4375 L223.2188,583.5 L220.7813,583.5 L224.125,571.1094 Z " fill="#000000"/><text fill="#000000" font-family="sans-serif" font-size="14" font-style="italic" lengthAdjust="spacing" textLength="71.0938" x="239.5" y="582.8467">Generator</text></g><!--class Negative__class--><g class="entity" data-entity="Negative__class" data-source-line="35" data-uid="ent0012" id="entity_Negative__class"><rect fill="#F1F1F1" height="32" rx="2.5" ry="2.5" style="stroke:#181818;stroke-width:0.5;" width="94.8291" x="428.5" y="787"/><ellipse cx="443.5" cy="803" fill="#ADD1B2" rx="11" ry="11" style="stroke:#181818;stroke-width:1;"/><path d="M446.4688,808.6406 Q445.8906,808.9375 445.25,809.0781 Q444.6094,809.2344 443.9063,809.2344 Q441.4063,809.2344 440.0781,807.5938 Q438.7656,805.9375 438.7656,802.8125 Q438.7656,799.6875 440.0781,798.0313 Q441.4063,796.375 443.9063,796.375 Q444.6094,796.375 445.25,796.5313 Q445.9063,796.6875 446.4688,796.9844 L446.4688,799.7031 Q445.8438,799.125 445.25,798.8594 Q444.6563,798.5781 444.0313,798.5781 Q442.6875,798.5781 442,799.6563 Q441.3125,800.7188 441.3125,802.8125 Q441.3125,804.9063 442,805.9844 Q442.6875,807.0469 444.0313,807.0469 Q444.6563,807.0469 445.25,806.7813 Q445.8438,806.5 446.4688,805.9219 L446.4688,808.6406 Z " fill="#000000"/><text fill="#000000" font-family="sans-serif" font-size="14" lengthAdjust="spacing" textLength="62.8291" x="457.5" y="807.8467">Negative</text></g><!--class NegativeExceptZero__class--><g class="entity" data-entity="NegativeExceptZero__class" data-source-line="39" data-uid="ent0014" id="entity_NegativeExceptZero__class"><rect fill="#F1F1F1" height="32" rx="2.5" ry="2.5" style="stroke:#181818;stroke-width:0.5;" width="175.1719" x="388.5" y="737"/><ellipse cx="403.5" cy="753" fill="#ADD1B2" rx="11" ry="11" style="stroke:#181818;stroke-width:1;"/><path d="M406.4688,758.6406 Q405.8906,758.9375 405.25,759.0781 Q404.6094,759.2344 403.9063,759.2344 Q401.4063,759.2344 400.0781,757.5938 Q398.7656,755.9375 398.7656,752.8125 Q398.7656,749.6875 400.0781,748.0313 Q401.4063,746.375 403.9063,746.375 Q404.6094,746.375 405.25,746.5313 Q405.9063,746.6875 406.4688,746.9844 L406.4688,749.7031 Q405.8438,749.125 405.25,748.8594 Q404.6563,748.5781 404.0313,748.5781 Q402.6875,748.5781 402,749.6563 Q401.3125,750.7188 401.3125,752.8125 Q401.3125,754.9063 402,755.9844 Q402.6875,757.0469 404.0313,757.0469 Q404.6563,757.0469 405.25,756.7813 Q405.8438,756.5 406.4688,755.9219 L406.4688,758.6406 Z " fill="#000000"/><text fill="#000000" font-family="sans-serif" font-size="14" lengthAdjust="spacing" textLength="143.1719" x="417.5" y="757.8467">NegativeExceptZero</text></g><!--class NegativeFraction__class--><g class="entity" data-entity="NegativeFraction__class" data-source-line="43" data-uid="ent0016" id="entity_NegativeFraction__class"><rect fill="#F1F1F1" height="32" rx="2.5" ry="2.5" style="stroke:#181818;stroke-width:0.5;" width="151.7314" x="400" y="687"/><ellipse cx="415" cy="703" fill="#ADD1B2" rx="11" ry="11" style="stroke:#181818;stroke-width:1;"/><path d="M417.9688,708.6406 Q417.3906,708.9375 416.75,709.0781 Q416.1094,709.2344 415.4063,709.2344 Q412.9063,709.2344 411.5781,707.5938 Q410.2656,705.9375 410.2656,702.8125 Q410.2656,699.6875 411.5781,698.0313 Q412.9063,696.375 415.4063,696.375 Q416.1094,696.375 416.75,696.5313 Q417.4063,696.6875 417.9688,696.9844 L417.9688,699.7031 Q417.3438,699.125 416.75,698.8594 Q416.1563,698.5781 415.5313,698.5781 Q414.1875,698.5781 413.5,699.6563 Q412.8125,700.7188 412.8125,702.8125 Q412.8125,704.9063 413.5,705.9844 Q414.1875,707.0469 415.5313,707.0469 Q416.1563,707.0469 416.75,706.7813 Q417.3438,706.5 417.9688,705.9219 L417.9688,708.6406 Z " fill="#000000"/><text fill="#000000" font-family="sans-serif" font-size="14" lengthAdjust="spacing" textLength="119.7314" x="429" y="707.8467">NegativeFraction</text></g><!--class Positive__class--><g class="entity" data-entity="Positive__class" data-source-line="47" data-uid="ent0018" id="entity_Positive__class"><rect fill="#F1F1F1" height="32" rx="2.5" ry="2.5" style="stroke:#181818;stroke-width:0.5;" width="86.4688" x="433" y="637"/><ellipse cx="448" cy="653" fill="#ADD1B2" rx="11" ry="11" style="stroke:#181818;stroke-width:1;"/><path d="M450.9688,658.6406 Q450.3906,658.9375 449.75,659.0781 Q449.1094,659.2344 448.4063,659.2344 Q445.9063,659.2344 444.5781,657.5938 Q443.2656,655.9375 443.2656,652.8125 Q443.2656,649.6875 444.5781,648.0313 Q445.9063,646.375 448.4063,646.375 Q449.1094,646.375 449.75,646.5313 Q450.4063,646.6875 450.9688,646.9844 L450.9688,649.7031 Q450.3438,649.125 449.75,648.8594 Q449.1563,648.5781 448.5313,648.5781 Q447.1875,648.5781 446.5,649.6563 Q445.8125,650.7188 445.8125,652.8125 Q445.8125,654.9063 446.5,655.9844 Q447.1875,657.0469 448.5313,657.0469 Q449.1563,657.0469 449.75,656.7813 Q450.3438,656.5 450.9688,655.9219 L450.9688,658.6406 Z " fill="#000000"/><text fill="#000000" font-family="sans-serif" font-size="14" lengthAdjust="spacing" textLength="54.4688" x="462" y="657.8467">Positive</text></g><!--class PositiveExceptZero__class--><g class="entity" data-entity="PositiveExceptZero__class" data-source-line="51" data-uid="ent0020" id="entity_PositiveExceptZero__class"><rect fill="#F1F1F1" height="32" rx="2.5" ry="2.5" style="stroke:#181818;stroke-width:0.5;" width="166.8115" x="392.5" y="587"/><ellipse cx="407.5" cy="603" fill="#ADD1B2" rx="11" ry="11" style="stroke:#181818;stroke-width:1;"/><path d="M410.4688,608.6406 Q409.8906,608.9375 409.25,609.0781 Q408.6094,609.2344 407.9063,609.2344 Q405.4063,609.2344 404.0781,607.5938 Q402.7656,605.9375 402.7656,602.8125 Q402.7656,599.6875 404.0781,598.0313 Q405.4063,596.375 407.9063,596.375 Q408.6094,596.375 409.25,596.5313 Q409.9063,596.6875 410.4688,596.9844 L410.4688,599.7031 Q409.8438,599.125 409.25,598.8594 Q408.6563,598.5781 408.0313,598.5781 Q406.6875,598.5781 406,599.6563 Q405.3125,600.7188 405.3125,602.8125 Q405.3125,604.9063 406,605.9844 Q406.6875,607.0469 408.0313,607.0469 Q408.6563,607.0469 409.25,606.7813 Q409.8438,606.5 410.4688,605.9219 L410.4688,608.6406 Z " fill="#000000"/><text fill="#000000" font-family="sans-serif" font-size="14" lengthAdjust="spacing" textLength="134.8115" x="421.5" y="607.8467">PositiveExceptZero</text></g><!--class PositiveFraction__class--><g class="entity" data-entity="PositiveFraction__class" data-source-line="55" data-uid="ent0022" id="entity_PositiveFraction__class"><rect fill="#F1F1F1" height="32" rx="2.5" ry="2.5" style="stroke:#181818;stroke-width:0.5;" width="143.3711" x="404.5" y="537"/><ellipse cx="419.5" cy="553" fill="#ADD1B2" rx="11" ry="11" style="stroke:#181818;stroke-width:1;"/><path d="M422.4688,558.6406 Q421.8906,558.9375 421.25,559.0781 Q420.6094,559.2344 419.9063,559.2344 Q417.4063,559.2344 416.0781,557.5938 Q414.7656,555.9375 414.7656,552.8125 Q414.7656,549.6875 416.0781,548.0313 Q417.4063,546.375 419.9063,546.375 Q420.6094,546.375 421.25,546.5313 Q421.9063,546.6875 422.4688,546.9844 L422.4688,549.7031 Q421.8438,549.125 421.25,548.8594 Q420.6563,548.5781 420.0313,548.5781 Q418.6875,548.5781 418,549.6563 Q417.3125,550.7188 417.3125,552.8125 Q417.3125,554.9063 418,555.9844 Q418.6875,557.0469 420.0313,557.0469 Q420.6563,557.0469 421.25,556.7813 Q421.8438,556.5 422.4688,555.9219 L422.4688,558.6406 Z " fill="#000000"/><text fill="#000000" font-family="sans-serif" font-size="14" lengthAdjust="spacing" textLength="111.3711" x="433.5" y="557.8467">PositiveFraction</text></g><!--class Relative__class--><g class="entity" data-entity="Relative__class" data-source-line="59" data-uid="ent0024" id="entity_Relative__class"><rect fill="#F1F1F1" height="32" rx="2.5" ry="2.5" style="stroke:#181818;stroke-width:0.5;" width="89.0869" x="431.5" y="487"/><ellipse cx="446.5" cy="503" fill="#ADD1B2" rx="11" ry="11" style="stroke:#181818;stroke-width:1;"/><path d="M449.4688,508.6406 Q448.8906,508.9375 448.25,509.0781 Q447.6094,509.2344 446.9063,509.2344 Q444.4063,509.2344 443.0781,507.5938 Q441.7656,505.9375 441.7656,502.8125 Q441.7656,499.6875 443.0781,498.0313 Q444.4063,496.375 446.9063,496.375 Q447.6094,496.375 448.25,496.5313 Q448.9063,496.6875 449.4688,496.9844 L449.4688,499.7031 Q448.8438,499.125 448.25,498.8594 Q447.6563,498.5781 447.0313,498.5781 Q445.6875,498.5781 445,499.6563 Q444.3125,500.7188 444.3125,502.8125 Q444.3125,504.9063 445,505.9844 Q445.6875,507.0469 447.0313,507.0469 Q447.6563,507.0469 448.25,506.7813 Q448.8438,506.5 449.4688,505.9219 L449.4688,508.6406 Z " fill="#000000"/><text fill="#000000" font-family="sans-serif" font-size="14" lengthAdjust="spacing" textLength="57.0869" x="460.5" y="507.8467">Relative</text></g><!--class RelativeExceptZero__class--><g class="entity" data-entity="RelativeExceptZero__class" data-source-line="63" data-uid="ent0026" id="entity_RelativeExceptZero__class"><rect fill="#F1F1F1" height="32" rx="2.5" ry="2.5" style="stroke:#181818;stroke-width:0.5;" width="169.4297" x="391.5" y="437"/><ellipse cx="406.5" cy="453" fill="#ADD1B2" rx="11" ry="11" style="stroke:#181818;stroke-width:1;"/><path d="M409.4688,458.6406 Q408.8906,458.9375 408.25,459.0781 Q407.6094,459.2344 406.9063,459.2344 Q404.4063,459.2344 403.0781,457.5938 Q401.7656,455.9375 401.7656,452.8125 Q401.7656,449.6875 403.0781,448.0313 Q404.4063,446.375 406.9063,446.375 Q407.6094,446.375 408.25,446.5313 Q408.9063,446.6875 409.4688,446.9844 L409.4688,449.7031 Q408.8438,449.125 408.25,448.8594 Q407.6563,448.5781 407.0313,448.5781 Q405.6875,448.5781 405,449.6563 Q404.3125,450.7188 404.3125,452.8125 Q404.3125,454.9063 405,455.9844 Q405.6875,457.0469 407.0313,457.0469 Q407.6563,457.0469 408.25,456.7813 Q408.8438,456.5 409.4688,455.9219 L409.4688,458.6406 Z " fill="#000000"/><text fill="#000000" font-family="sans-serif" font-size="14" lengthAdjust="spacing" textLength="137.4297" x="420.5" y="457.8467">RelativeExceptZero</text></g><!--class RelativeFraction__class--><g class="entity" data-entity="RelativeFraction__class" data-source-line="67" data-uid="ent0028" id="entity_RelativeFraction__class"><rect fill="#F1F1F1" height="32" rx="2.5" ry="2.5" style="stroke:#181818;stroke-width:0.5;" width="145.9893" x="403" y="387"/><ellipse cx="418" cy="403" fill="#ADD1B2" rx="11" ry="11" style="stroke:#181818;stroke-width:1;"/><path d="M420.9688,408.6406 Q420.3906,408.9375 419.75,409.0781 Q419.1094,409.2344 418.4063,409.2344 Q415.9063,409.2344 414.5781,407.5938 Q413.2656,405.9375 413.2656,402.8125 Q413.2656,399.6875 414.5781,398.0313 Q415.9063,396.375 418.4063,396.375 Q419.1094,396.375 419.75,396.5313 Q420.4063,396.6875 420.9688,396.9844 L420.9688,399.7031 Q420.3438,399.125 419.75,398.8594 Q419.1563,398.5781 418.5313,398.5781 Q417.1875,398.5781 416.5,399.6563 Q415.8125,400.7188 415.8125,402.8125 Q415.8125,404.9063 416.5,405.9844 Q417.1875,407.0469 418.5313,407.0469 Q419.1563,407.0469 419.75,406.7813 Q420.3438,406.5 420.9688,405.9219 L420.9688,408.6406 Z " fill="#000000"/><text fill="#000000" font-family="sans-serif" font-size="14" lengthAdjust="spacing" textLength="113.9893" x="432" y="407.8467">RelativeFraction</text></g><!--class Generator__class--><g class="entity" data-entity="Generator__class" data-source-line="71" data-uid="ent0031" id="entity_Generator__class"><rect fill="#F1F1F1" height="32" rx="2.5" ry="2.5" style="stroke:#181818;stroke-width:0.5;" width="103.0938" x="210.5" y="237"/><ellipse cx="225.5" cy="253" fill="#A9DCDF" rx="11" ry="11" style="stroke:#181818;stroke-width:1;"/><path d="M225.6094,248.3438 L224.4531,253.4219 L226.7813,253.4219 L225.6094,248.3438 Z M224.125,246.1094 L227.1094,246.1094 L230.4688,258.5 L228.0156,258.5 L227.25,255.4375 L223.9688,255.4375 L223.2188,258.5 L220.7813,258.5 L224.125,246.1094 Z " fill="#000000"/><text fill="#000000" font-family="sans-serif" font-size="14" font-style="italic" lengthAdjust="spacing" textLength="71.0938" x="239.5" y="257.8467">Generator</text></g><!--class Negative__class--><g class="entity" data-entity="Negative__class" data-source-line="75" data-uid="ent0033" id="entity_Negative__class"><rect fill="#F1F1F1" height="32" rx="2.5" ry="2.5" style="stroke:#181818;stroke-width:0.5;" width="94.8291" x="428.5" y="312"/><ellipse cx="443.5" cy="328" fill="#ADD1B2" rx="11" ry="11" style="stroke:#181818;stroke-width:1;"/><path d="M446.4688,333.6406 Q445.8906,333.9375 445.25,334.0781 Q444.6094,334.2344 443.9063,334.2344 Q441.4063,334.2344 440.0781,332.5938 Q438.7656,330.9375 438.7656,327.8125 Q438.7656,324.6875 440.0781,323.0313 Q441.4063,321.375 443.9063,321.375 Q444.6094,321.375 445.25,321.5313 Q445.9063,321.6875 446.4688,321.9844 L446.4688,324.7031 Q445.8438,324.125 445.25,323.8594 Q444.6563,323.5781 444.0313,323.5781 Q442.6875,323.5781 442,324.6563 Q441.3125,325.7188 441.3125,327.8125 Q441.3125,329.9063 442,330.9844 Q442.6875,332.0469 444.0313,332.0469 Q444.6563,332.0469 445.25,331.7813 Q445.8438,331.5 446.4688,330.9219 L446.4688,333.6406 Z " fill="#000000"/><text fill="#000000" font-family="sans-serif" font-size="14" lengthAdjust="spacing" textLength="62.8291" x="457.5" y="332.8467">Negative</text></g><!--class Positive__class--><g class="entity" data-entity="Positive__class" data-source-line="79" data-uid="ent0035" id="entity_Positive__class"><rect fill="#F1F1F1" height="32" rx="2.5" ry="2.5" style="stroke:#181818;stroke-width:0.5;" width="86.4688" x="433" y="262"/><ellipse cx="448" cy="278" fill="#ADD1B2" rx="11" ry="11" style="stroke:#181818;stroke-width:1;"/><path d="M450.9688,283.6406 Q450.3906,283.9375 449.75,284.0781 Q449.1094,284.2344 448.4063,284.2344 Q445.9063,284.2344 444.5781,282.5938 Q443.2656,280.9375 443.2656,277.8125 Q443.2656,274.6875 444.5781,273.0313 Q445.9063,271.375 448.4063,271.375 Q449.1094,271.375 449.75,271.5313 Q450.4063,271.6875 450.9688,271.9844 L450.9688,274.7031 Q450.3438,274.125 449.75,273.8594 Q449.1563,273.5781 448.5313,273.5781 Q447.1875,273.5781 446.5,274.6563 Q445.8125,275.7188 445.8125,277.8125 Q445.8125,279.9063 446.5,280.9844 Q447.1875,282.0469 448.5313,282.0469 Q449.1563,282.0469 449.75,281.7813 Q450.3438,281.5 450.9688,280.9219 L450.9688,283.6406 Z " fill="#000000"/><text fill="#000000" font-family="sans-serif" font-size="14" lengthAdjust="spacing" textLength="54.4688" x="462" y="282.8467">Positive</text></g><!--class PositiveExceptZero__class--><g class="entity" data-entity="PositiveExceptZero__class" data-source-line="83" data-uid="ent0037" id="entity_PositiveExceptZero__class"><rect fill="#F1F1F1" height="32" rx="2.5" ry="2.5" style="stroke:#181818;stroke-width:0.5;" width="166.8115" x="392.5" y="212"/><ellipse cx="407.5" cy="228" fill="#ADD1B2" rx="11" ry="11" style="stroke:#181818;stroke-width:1;"/><path d="M410.4688,233.6406 Q409.8906,233.9375 409.25,234.0781 Q408.6094,234.2344 407.9063,234.2344 Q405.4063,234.2344 404.0781,232.5938 Q402.7656,230.9375 402.7656,227.8125 Q402.7656,224.6875 404.0781,223.0313 Q405.4063,221.375 407.9063,221.375 Q408.6094,221.375 409.25,221.5313 Q409.9063,221.6875 410.4688,221.9844 L410.4688,224.7031 Q409.8438,224.125 409.25,223.8594 Q408.6563,223.5781 408.0313,223.5781 Q406.6875,223.5781 406,224.6563 Q405.3125,225.7188 405.3125,227.8125 Q405.3125,229.9063 406,230.9844 Q406.6875,232.0469 408.0313,232.0469 Q408.6563,232.0469 409.25,231.7813 Q409.8438,231.5 410.4688,230.9219 L410.4688,233.6406 Z " fill="#000000"/><text fill="#000000" font-family="sans-serif" font-size="14" lengthAdjust="spacing" textLength="134.8115" x="421.5" y="232.8467">PositiveExceptZero</text></g><!--class Relative__class--><g class="entity" data-entity="Relative__class" data-source-line="87" data-uid="ent0039" id="entity_Relative__class"><rect fill="#F1F1F1" height="32" rx="2.5" ry="2.5" style="stroke:#181818;stroke-width:0.5;" width="89.0869" x="431.5" y="162"/><ellipse cx="446.5" cy="178" fill="#ADD1B2" rx="11" ry="11" style="stroke:#181818;stroke-width:1;"/><path d="M449.4688,183.6406 Q448.8906,183.9375 448.25,184.0781 Q447.6094,184.2344 446.9063,184.2344 Q444.4063,184.2344 443.0781,182.5938 Q441.7656,180.9375 441.7656,177.8125 Q441.7656,174.6875 443.0781,173.0313 Q444.4063,171.375 446.9063,171.375 Q447.6094,171.375 448.25,171.5313 Q448.9063,171.6875 449.4688,171.9844 L449.4688,174.7031 Q448.8438,174.125 448.25,173.8594 Q447.6563,173.5781 447.0313,173.5781 Q445.6875,173.5781 445,174.6563 Q444.3125,175.7188 444.3125,177.8125 Q444.3125,179.9063 445,180.9844 Q445.6875,182.0469 447.0313,182.0469 Q447.6563,182.0469 448.25,181.7813 Q448.8438,181.5 449.4688,180.9219 L449.4688,183.6406 Z " fill="#000000"/><text fill="#000000" font-family="sans-serif" font-size="14" lengthAdjust="spacing" textLength="57.0869" x="460.5" y="182.8467">Relative</text></g><!--class RelativeExceptZero__class--><g class="entity" data-entity="RelativeExceptZero__class" data-source-line="91" data-uid="ent0041" id="entity_RelativeExceptZero__class"><rect fill="#F1F1F1" height="32" rx="2.5" ry="2.5" style="stroke:#181818;stroke-width:0.5;" width="169.4297" x="391.5" y="112"/><ellipse cx="406.5" cy="128" fill="#ADD1B2" rx="11" ry="11" style="stroke:#181818;stroke-width:1;"/><path d="M409.4688,133.6406 Q408.8906,133.9375 408.25,134.0781 Q407.6094,134.2344 406.9063,134.2344 Q404.4063,134.2344 403.0781,132.5938 Q401.7656,130.9375 401.7656,127.8125 Q401.7656,124.6875 403.0781,123.0313 Q404.4063,121.375 406.9063,121.375 Q407.6094,121.375 408.25,121.5313 Q408.9063,121.6875 409.4688,121.9844 L409.4688,124.7031 Q408.8438,124.125 408.25,123.8594 Q407.6563,123.5781 407.0313,123.5781 Q405.6875,123.5781 405,124.6563 Q404.3125,125.7188 404.3125,127.8125 Q404.3125,129.9063 405,130.9844 Q405.6875,132.0469 407.0313,132.0469 Q407.6563,132.0469 408.25,131.7813 Q408.8438,131.5 409.4688,130.9219 L409.4688,133.6406 Z " fill="#000000"/><text fill="#000000" font-family="sans-serif" font-size="14" lengthAdjust="spacing" textLength="137.4297" x="420.5" y="132.8467">RelativeExceptZero</text></g><!--class Validator__class--><g class="entity" data-entity="Validator__class" data-source-line="95" data-uid="ent0044" id="entity_Validator__class"><rect fill="#F1F1F1" height="32" rx="2.5" ry="2.5" style="stroke:#181818;stroke-width:0.5;" width="95.2119" x="44.5" y="1145"/><ellipse cx="59.5" cy="1161" fill="#A9DCDF" rx="11" ry="11" style="stroke:#181818;stroke-width:1;"/><path d="M59.6094,1156.3438 L58.4531,1161.4219 L60.7813,1161.4219 L59.6094,1156.3438 Z M58.125,1154.1094 L61.1094,1154.1094 L64.4688,1166.5 L62.0156,1166.5 L61.25,1163.4375 L57.9688,1163.4375 L57.2188,1166.5 L54.7813,1166.5 L58.125,1154.1094 Z " fill="#000000"/><text fill="#000000" font-family="sans-serif" font-size="14" font-style="italic" lengthAdjust="spacing" textLength="63.2119" x="73.5" y="1165.8467">Validator</text></g><!--class Strategy__interface--><g class="entity" data-entity="Strategy__interface" data-source-line="99" data-uid="ent0046" id="entity_Strategy__interface"><rect fill="#F1F1F1" height="32" rx="2.5" ry="2.5" style="stroke:#181818;stroke-width:0.5;" width="91.9854" x="46" y="1300"/><ellipse cx="61" cy="1316" fill="#B4A7E5" rx="11" ry="11" style="stroke:#181818;stroke-width:1;"/><path d="M56.9219,1311.7656 L56.9219,1309.6094 L64.3125,1309.6094 L64.3125,1311.7656 L61.8438,1311.7656 L61.8438,1319.8438 L64.3125,1319.8438 L64.3125,1322 L56.9219,1322 L56.9219,1319.8438 L59.3906,1319.8438 L59.3906,1311.7656 L56.9219,1311.7656 Z " fill="#000000"/><text fill="#000000" font-family="sans-serif" font-size="14" font-style="italic" lengthAdjust="spacing" textLength="59.9854" x="75" y="1320.8467">Strategy</text></g><!--class Validator__class--><g class="entity" data-entity="Validator__class" data-source-line="103" data-uid="ent0047" id="entity_Validator__class"><rect fill="#F1F1F1" height="32" rx="2.5" ry="2.5" style="stroke:#181818;stroke-width:0.5;" width="95.2119" x="214.5" y="1300"/><ellipse cx="229.5" cy="1316" fill="#A9DCDF" rx="11" ry="11" style="stroke:#181818;stroke-width:1;"/><path d="M229.6094,1311.3438 L228.4531,1316.4219 L230.7813,1316.4219 L229.6094,1311.3438 Z M228.125,1309.1094 L231.1094,1309.1094 L234.4688,1321.5 L232.0156,1321.5 L231.25,1318.4375 L227.9688,1318.4375 L227.2188,1321.5 L224.7813,1321.5 L228.125,1309.1094 Z " fill="#000000"/><text fill="#000000" font-family="sans-serif" font-size="14" font-style="italic" lengthAdjust="spacing" textLength="63.2119" x="243.5" y="1320.8467">Validator</text></g><!--class Negative__class--><g class="entity" data-entity="Negative__class" data-source-line="107" data-uid="ent0050" id="entity_Negative__class"><rect fill="#F1F1F1" height="32" rx="2.5" ry="2.5" style="stroke:#181818;stroke-width:0.5;" width="94.8291" x="428.5" y="1462"/><ellipse cx="443.5" cy="1478" fill="#A9DCDF" rx="11" ry="11" style="stroke:#181818;stroke-width:1;"/><path d="M443.6094,1473.3438 L442.4531,1478.4219 L444.7813,1478.4219 L443.6094,1473.3438 Z M442.125,1471.1094 L445.1094,1471.1094 L448.4688,1483.5 L446.0156,1483.5 L445.25,1480.4375 L441.9688,1480.4375 L441.2188,1483.5 L438.7813,1483.5 L442.125,1471.1094 Z " fill="#000000"/><text fill="#000000" font-family="sans-serif" font-size="14" font-style="italic" lengthAdjust="spacing" textLength="62.8291" x="457.5" y="1482.8467">Negative</text></g><!--class OnlyNegative__class--><g class="entity" data-entity="OnlyNegative__class" data-source-line="111" data-uid="ent0052" id="entity_OnlyNegative__class"><rect fill="#F1F1F1" height="32" rx="2.5" ry="2.5" style="stroke:#181818;stroke-width:0.5;" width="126.8965" x="647.5" y="1512"/><ellipse cx="662.5" cy="1528" fill="#ADD1B2" rx="11" ry="11" style="stroke:#181818;stroke-width:1;"/><path d="M665.4688,1533.6406 Q664.8906,1533.9375 664.25,1534.0781 Q663.6094,1534.2344 662.9063,1534.2344 Q660.4063,1534.2344 659.0781,1532.5938 Q657.7656,1530.9375 657.7656,1527.8125 Q657.7656,1524.6875 659.0781,1523.0313 Q660.4063,1521.375 662.9063,1521.375 Q663.6094,1521.375 664.25,1521.5313 Q664.9063,1521.6875 665.4688,1521.9844 L665.4688,1524.7031 Q664.8438,1524.125 664.25,1523.8594 Q663.6563,1523.5781 663.0313,1523.5781 Q661.6875,1523.5781 661,1524.6563 Q660.3125,1525.7188 660.3125,1527.8125 Q660.3125,1529.9063 661,1530.9844 Q661.6875,1532.0469 663.0313,1532.0469 Q663.6563,1532.0469 664.25,1531.7813 Q664.8438,1531.5 665.4688,1530.9219 L665.4688,1533.6406 Z " fill="#000000"/><text fill="#000000" font-family="sans-serif" font-size="14" lengthAdjust="spacing" textLength="94.8965" x="676.5" y="1532.8467">OnlyNegative</text></g><!--class OnlyNegativeFractions__class--><g class="entity" data-entity="OnlyNegativeFractions__class" data-source-line="115" data-uid="ent0054" id="entity_OnlyNegativeFractions__class"><rect fill="#F1F1F1" height="32" rx="2.5" ry="2.5" style="stroke:#181818;stroke-width:0.5;" width="191.0928" x="615.5" y="1462"/><ellipse cx="630.5" cy="1478" fill="#ADD1B2" rx="11" ry="11" style="stroke:#181818;stroke-width:1;"/><path d="M633.4688,1483.6406 Q632.8906,1483.9375 632.25,1484.0781 Q631.6094,1484.2344 630.9063,1484.2344 Q628.4063,1484.2344 627.0781,1482.5938 Q625.7656,1480.9375 625.7656,1477.8125 Q625.7656,1474.6875 627.0781,1473.0313 Q628.4063,1471.375 630.9063,1471.375 Q631.6094,1471.375 632.25,1471.5313 Q632.9063,1471.6875 633.4688,1471.9844 L633.4688,1474.7031 Q632.8438,1474.125 632.25,1473.8594 Q631.6563,1473.5781 631.0313,1473.5781 Q629.6875,1473.5781 629,1474.6563 Q628.3125,1475.7188 628.3125,1477.8125 Q628.3125,1479.9063 629,1480.9844 Q629.6875,1482.0469 631.0313,1482.0469 Q631.6563,1482.0469 632.25,1481.7813 Q632.8438,1481.5 633.4688,1480.9219 L633.4688,1483.6406 Z " fill="#000000"/><text fill="#000000" font-family="sans-serif" font-size="14" lengthAdjust="spacing" textLength="159.0928" x="644.5" y="1482.8467">OnlyNegativeFractions</text></g><!--class Positive__class--><g class="entity" data-entity="Positive__class" data-source-line="119" data-uid="ent0056" id="entity_Positive__class"><rect fill="#F1F1F1" height="32" rx="2.5" ry="2.5" style="stroke:#181818;stroke-width:0.5;" width="86.4688" x="433" y="1337"/><ellipse cx="448" cy="1353" fill="#A9DCDF" rx="11" ry="11" style="stroke:#181818;stroke-width:1;"/><path d="M448.1094,1348.3438 L446.9531,1353.4219 L449.2813,1353.4219 L448.1094,1348.3438 Z M446.625,1346.1094 L449.6094,1346.1094 L452.9688,1358.5 L450.5156,1358.5 L449.75,1355.4375 L446.4688,1355.4375 L445.7188,1358.5 L443.2813,1358.5 L446.625,1346.1094 Z " fill="#000000"/><text fill="#000000" font-family="sans-serif" font-size="14" font-style="italic" lengthAdjust="spacing" textLength="54.4688" x="462" y="1357.8467">Positive</text></g><!--class OnlyPositive__class--><g class="entity" data-entity="OnlyPositive__class" data-source-line="123" data-uid="ent0058" id="entity_OnlyPositive__class"><rect fill="#F1F1F1" height="32" rx="2.5" ry="2.5" style="stroke:#181818;stroke-width:0.5;" width="118.5361" x="651.5" y="1412"/><ellipse cx="666.5" cy="1428" fill="#ADD1B2" rx="11" ry="11" style="stroke:#181818;stroke-width:1;"/><path d="M669.4688,1433.6406 Q668.8906,1433.9375 668.25,1434.0781 Q667.6094,1434.2344 666.9063,1434.2344 Q664.4063,1434.2344 663.0781,1432.5938 Q661.7656,1430.9375 661.7656,1427.8125 Q661.7656,1424.6875 663.0781,1423.0313 Q664.4063,1421.375 666.9063,1421.375 Q667.6094,1421.375 668.25,1421.5313 Q668.9063,1421.6875 669.4688,1421.9844 L669.4688,1424.7031 Q668.8438,1424.125 668.25,1423.8594 Q667.6563,1423.5781 667.0313,1423.5781 Q665.6875,1423.5781 665,1424.6563 Q664.3125,1425.7188 664.3125,1427.8125 Q664.3125,1429.9063 665,1430.9844 Q665.6875,1432.0469 667.0313,1432.0469 Q667.6563,1432.0469 668.25,1431.7813 Q668.8438,1431.5 669.4688,1430.9219 L669.4688,1433.6406 Z " fill="#000000"/><text fill="#000000" font-family="sans-serif" font-size="14" lengthAdjust="spacing" textLength="86.5361" x="680.5" y="1432.8467">OnlyPositive</text></g><!--class OnlyPositiveExceptZero__class--><g class="entity" data-entity="OnlyPositiveExceptZero__class" data-source-line="127" data-uid="ent0060" id="entity_OnlyPositiveExceptZero__class"><rect fill="#F1F1F1" height="32" rx="2.5" ry="2.5" style="stroke:#181818;stroke-width:0.5;" width="198.8789" x="611.5" y="1362"/><ellipse cx="626.5" cy="1378" fill="#ADD1B2" rx="11" ry="11" style="stroke:#181818;stroke-width:1;"/><path d="M629.4688,1383.6406 Q628.8906,1383.9375 628.25,1384.0781 Q627.6094,1384.2344 626.9063,1384.2344 Q624.4063,1384.2344 623.0781,1382.5938 Q621.7656,1380.9375 621.7656,1377.8125 Q621.7656,1374.6875 623.0781,1373.0313 Q624.4063,1371.375 626.9063,1371.375 Q627.6094,1371.375 628.25,1371.5313 Q628.9063,1371.6875 629.4688,1371.9844 L629.4688,1374.7031 Q628.8438,1374.125 628.25,1373.8594 Q627.6563,1373.5781 627.0313,1373.5781 Q625.6875,1373.5781 625,1374.6563 Q624.3125,1375.7188 624.3125,1377.8125 Q624.3125,1379.9063 625,1380.9844 Q625.6875,1382.0469 627.0313,1382.0469 Q627.6563,1382.0469 628.25,1381.7813 Q628.8438,1381.5 629.4688,1380.9219 L629.4688,1383.6406 Z " fill="#000000"/><text fill="#000000" font-family="sans-serif" font-size="14" lengthAdjust="spacing" textLength="166.8789" x="640.5" y="1382.8467">OnlyPositiveExceptZero</text></g><!--class OnlyPositiveFractions__class--><g class="entity" data-entity="OnlyPositiveFractions__class" data-source-line="131" data-uid="ent0062" id="entity_OnlyPositiveFractions__class"><rect fill="#F1F1F1" height="32" rx="2.5" ry="2.5" style="stroke:#181818;stroke-width:0.5;" width="182.7324" x="619.5" y="1312"/><ellipse cx="634.5" cy="1328" fill="#ADD1B2" rx="11" ry="11" style="stroke:#181818;stroke-width:1;"/><path d="M637.4688,1333.6406 Q636.8906,1333.9375 636.25,1334.0781 Q635.6094,1334.2344 634.9063,1334.2344 Q632.4063,1334.2344 631.0781,1332.5938 Q629.7656,1330.9375 629.7656,1327.8125 Q629.7656,1324.6875 631.0781,1323.0313 Q632.4063,1321.375 634.9063,1321.375 Q635.6094,1321.375 636.25,1321.5313 Q636.9063,1321.6875 637.4688,1321.9844 L637.4688,1324.7031 Q636.8438,1324.125 636.25,1323.8594 Q635.6563,1323.5781 635.0313,1323.5781 Q633.6875,1323.5781 633,1324.6563 Q632.3125,1325.7188 632.3125,1327.8125 Q632.3125,1329.9063 633,1330.9844 Q633.6875,1332.0469 635.0313,1332.0469 Q635.6563,1332.0469 636.25,1331.7813 Q636.8438,1331.5 637.4688,1330.9219 L637.4688,1333.6406 Z " fill="#000000"/><text fill="#000000" font-family="sans-serif" font-size="14" lengthAdjust="spacing" textLength="150.7324" x="648.5" y="1332.8467">OnlyPositiveFractions</text></g><!--class Relative__class--><g class="entity" data-entity="Relative__class" data-source-line="135" data-uid="ent0064" id="entity_Relative__class"><rect fill="#F1F1F1" height="32" rx="2.5" ry="2.5" style="stroke:#181818;stroke-width:0.5;" width="89.0869" x="431.5" y="1262"/><ellipse cx="446.5" cy="1278" fill="#ADD1B2" rx="11" ry="11" style="stroke:#181818;stroke-width:1;"/><path d="M449.4688,1283.6406 Q448.8906,1283.9375 448.25,1284.0781 Q447.6094,1284.2344 446.9063,1284.2344 Q444.4063,1284.2344 443.0781,1282.5938 Q441.7656,1280.9375 441.7656,1277.8125 Q441.7656,1274.6875 443.0781,1273.0313 Q444.4063,1271.375 446.9063,1271.375 Q447.6094,1271.375 448.25,1271.5313 Q448.9063,1271.6875 449.4688,1271.9844 L449.4688,1274.7031 Q448.8438,1274.125 448.25,1273.8594 Q447.6563,1273.5781 447.0313,1273.5781 Q445.6875,1273.5781 445,1274.6563 Q444.3125,1275.7188 444.3125,1277.8125 Q444.3125,1279.9063 445,1280.9844 Q445.6875,1282.0469 447.0313,1282.0469 Q447.6563,1282.0469 448.25,1281.7813 Q448.8438,1281.5 449.4688,1280.9219 L449.4688,1283.6406 Z " fill="#000000"/><text fill="#000000" font-family="sans-serif" font-size="14" lengthAdjust="spacing" textLength="57.0869" x="460.5" y="1282.8467">Relative</text></g><!--class RelativeExceptZero__class--><g class="entity" data-entity="RelativeExceptZero__class" data-source-line="139" data-uid="ent0066" id="entity_RelativeExceptZero__class"><rect fill="#F1F1F1" height="32" rx="2.5" ry="2.5" style="stroke:#181818;stroke-width:0.5;" width="169.4297" x="626.5" y="1262"/><ellipse cx="641.5" cy="1278" fill="#ADD1B2" rx="11" ry="11" style="stroke:#181818;stroke-width:1;"/><path d="M644.4688,1283.6406 Q643.8906,1283.9375 643.25,1284.0781 Q642.6094,1284.2344 641.9063,1284.2344 Q639.4063,1284.2344 638.0781,1282.5938 Q636.7656,1280.9375 636.7656,1277.8125 Q636.7656,1274.6875 638.0781,1273.0313 Q639.4063,1271.375 641.9063,1271.375 Q642.6094,1271.375 643.25,1271.5313 Q643.9063,1271.6875 644.4688,1271.9844 L644.4688,1274.7031 Q643.8438,1274.125 643.25,1273.8594 Q642.6563,1273.5781 642.0313,1273.5781 Q640.6875,1273.5781 640,1274.6563 Q639.3125,1275.7188 639.3125,1277.8125 Q639.3125,1279.9063 640,1280.9844 Q640.6875,1282.0469 642.0313,1282.0469 Q642.6563,1282.0469 643.25,1281.7813 Q643.8438,1281.5 644.4688,1280.9219 L644.4688,1283.6406 Z " fill="#000000"/><text fill="#000000" font-family="sans-serif" font-size="14" lengthAdjust="spacing" textLength="137.4297" x="655.5" y="1282.8467">RelativeExceptZero</text></g><!--class RelativeFractions__class--><g class="entity" data-entity="RelativeFractions__class" data-source-line="143" data-uid="ent0068" id="entity_RelativeFractions__class"><rect fill="#F1F1F1" height="32" rx="2.5" ry="2.5" style="stroke:#181818;stroke-width:0.5;" width="153.2832" x="634.5" y="1212"/><ellipse cx="649.5" cy="1228" fill="#ADD1B2" rx="11" ry="11" style="stroke:#181818;stroke-width:1;"/><path d="M652.4688,1233.6406 Q651.8906,1233.9375 651.25,1234.0781 Q650.6094,1234.2344 649.9063,1234.2344 Q647.4063,1234.2344 646.0781,1232.5938 Q644.7656,1230.9375 644.7656,1227.8125 Q644.7656,1224.6875 646.0781,1223.0313 Q647.4063,1221.375 649.9063,1221.375 Q650.6094,1221.375 651.25,1221.5313 Q651.9063,1221.6875 652.4688,1221.9844 L652.4688,1224.7031 Q651.8438,1224.125 651.25,1223.8594 Q650.6563,1223.5781 650.0313,1223.5781 Q648.6875,1223.5781 648,1224.6563 Q647.3125,1225.7188 647.3125,1227.8125 Q647.3125,1229.9063 648,1230.9844 Q648.6875,1232.0469 650.0313,1232.0469 Q650.6563,1232.0469 651.25,1231.7813 Q651.8438,1231.5 652.4688,1230.9219 L652.4688,1233.6406 Z " fill="#000000"/><text fill="#000000" font-family="sans-serif" font-size="14" lengthAdjust="spacing" textLength="121.2832" x="663.5" y="1232.8467">RelativeFractions</text></g><!--class Strategy__interface--><g class="entity" data-entity="Strategy__interface" data-source-line="147" data-uid="ent0071" id="entity_Strategy__interface"><rect fill="#F1F1F1" height="32" rx="2.5" ry="2.5" style="stroke:#181818;stroke-width:0.5;" width="91.9854" x="46" y="1022"/><ellipse cx="61" cy="1038" fill="#B4A7E5" rx="11" ry="11" style="stroke:#181818;stroke-width:1;"/><path d="M56.9219,1033.7656 L56.9219,1031.6094 L64.3125,1031.6094 L64.3125,1033.7656 L61.8438,1033.7656 L61.8438,1041.8438 L64.3125,1041.8438 L64.3125,1044 L56.9219,1044 L56.9219,1041.8438 L59.3906,1041.8438 L59.3906,1033.7656 L56.9219,1033.7656 Z " fill="#000000"/><text fill="#000000" font-family="sans-serif" font-size="14" font-style="italic" lengthAdjust="spacing" textLength="59.9854" x="75" y="1042.8467">Strategy</text></g><!--class Validator__class--><g class="entity" data-entity="Validator__class" data-source-line="151" data-uid="ent0072" id="entity_Validator__class"><rect fill="#F1F1F1" height="32" rx="2.5" ry="2.5" style="stroke:#181818;stroke-width:0.5;" width="95.2119" x="214.5" y="1022"/><ellipse cx="229.5" cy="1038" fill="#A9DCDF" rx="11" ry="11" style="stroke:#181818;stroke-width:1;"/><path d="M229.6094,1033.3438 L228.4531,1038.4219 L230.7813,1038.4219 L229.6094,1033.3438 Z M228.125,1031.1094 L231.1094,1031.1094 L234.4688,1043.5 L232.0156,1043.5 L231.25,1040.4375 L227.9688,1040.4375 L227.2188,1043.5 L224.7813,1043.5 L228.125,1031.1094 Z " fill="#000000"/><text fill="#000000" font-family="sans-serif" font-size="14" font-style="italic" lengthAdjust="spacing" textLength="63.2119" x="243.5" y="1042.8467">Validator</text></g><!--class OnlyNegative__class--><g class="entity" data-entity="OnlyNegative__class" data-source-line="155" data-uid="ent0075" id="entity_OnlyNegative__class"><rect fill="#F1F1F1" height="32" rx="2.5" ry="2.5" style="stroke:#181818;stroke-width:0.5;" width="126.8965" x="412.5" y="1097"/><ellipse cx="427.5" cy="1113" fill="#ADD1B2" rx="11" ry="11" style="stroke:#181818;stroke-width:1;"/><path d="M430.4688,1118.6406 Q429.8906,1118.9375 429.25,1119.0781 Q428.6094,1119.2344 427.9063,1119.2344 Q425.4063,1119.2344 424.0781,1117.5938 Q422.7656,1115.9375 422.7656,1112.8125 Q422.7656,1109.6875 424.0781,1108.0313 Q425.4063,1106.375 427.9063,1106.375 Q428.6094,1106.375 429.25,1106.5313 Q429.9063,1106.6875 430.4688,1106.9844 L430.4688,1109.7031 Q429.8438,1109.125 429.25,1108.8594 Q428.6563,1108.5781 428.0313,1108.5781 Q426.6875,1108.5781 426,1109.6563 Q425.3125,1110.7188 425.3125,1112.8125 Q425.3125,1114.9063 426,1115.9844 Q426.6875,1117.0469 428.0313,1117.0469 Q428.6563,1117.0469 429.25,1116.7813 Q429.8438,1116.5 430.4688,1115.9219 L430.4688,1118.6406 Z " fill="#000000"/><text fill="#000000" font-family="sans-serif" font-size="14" lengthAdjust="spacing" textLength="94.8965" x="441.5" y="1117.8467">OnlyNegative</text></g><!--class OnlyPositive__class--><g class="entity" data-entity="OnlyPositive__class" data-source-line="159" data-uid="ent0077" id="entity_OnlyPositive__class"><rect fill="#F1F1F1" height="32" rx="2.5" ry="2.5" style="stroke:#181818;stroke-width:0.5;" width="118.5361" x="416.5" y="1047"/><ellipse cx="431.5" cy="1063" fill="#ADD1B2" rx="11" ry="11" style="stroke:#181818;stroke-width:1;"/><path d="M434.4688,1068.6406 Q433.8906,1068.9375 433.25,1069.0781 Q432.6094,1069.2344 431.9063,1069.2344 Q429.4063,1069.2344 428.0781,1067.5938 Q426.7656,1065.9375 426.7656,1062.8125 Q426.7656,1059.6875 428.0781,1058.0313 Q429.4063,1056.375 431.9063,1056.375 Q432.6094,1056.375 433.25,1056.5313 Q433.9063,1056.6875 434.4688,1056.9844 L434.4688,1059.7031 Q433.8438,1059.125 433.25,1058.8594 Q432.6563,1058.5781 432.0313,1058.5781 Q430.6875,1058.5781 430,1059.6563 Q429.3125,1060.7188 429.3125,1062.8125 Q429.3125,1064.9063 430,1065.9844 Q430.6875,1067.0469 432.0313,1067.0469 Q432.6563,1067.0469 433.25,1066.7813 Q433.8438,1066.5 434.4688,1065.9219 L434.4688,1068.6406 Z " fill="#000000"/><text fill="#000000" font-family="sans-serif" font-size="14" lengthAdjust="spacing" textLength="86.5361" x="445.5" y="1067.8467">OnlyPositive</text></g><!--class OnlyPositiveExceptZero__class--><g class="entity" data-entity="OnlyPositiveExceptZero__class" data-source-line="163" data-uid="ent0079" id="entity_OnlyPositiveExceptZero__class"><rect fill="#F1F1F1" height="32" rx="2.5" ry="2.5" style="stroke:#181818;stroke-width:0.5;" width="198.8789" x="376.5" y="997"/><ellipse cx="391.5" cy="1013" fill="#ADD1B2" rx="11" ry="11" style="stroke:#181818;stroke-width:1;"/><path d="M394.4688,1018.6406 Q393.8906,1018.9375 393.25,1019.0781 Q392.6094,1019.2344 391.9063,1019.2344 Q389.4063,1019.2344 388.0781,1017.5938 Q386.7656,1015.9375 386.7656,1012.8125 Q386.7656,1009.6875 388.0781,1008.0313 Q389.4063,1006.375 391.9063,1006.375 Q392.6094,1006.375 393.25,1006.5313 Q393.9063,1006.6875 394.4688,1006.9844 L394.4688,1009.7031 Q393.8438,1009.125 393.25,1008.8594 Q392.6563,1008.5781 392.0313,1008.5781 Q390.6875,1008.5781 390,1009.6563 Q389.3125,1010.7188 389.3125,1012.8125 Q389.3125,1014.9063 390,1015.9844 Q390.6875,1017.0469 392.0313,1017.0469 Q392.6563,1017.0469 393.25,1016.7813 Q393.8438,1016.5 394.4688,1015.9219 L394.4688,1018.6406 Z " fill="#000000"/><text fill="#000000" font-family="sans-serif" font-size="14" lengthAdjust="spacing" textLength="166.8789" x="405.5" y="1017.8467">OnlyPositiveExceptZero</text></g><!--class Relative__class--><g class="entity" data-entity="Relative__class" data-source-line="167" data-uid="ent0081" id="entity_Relative__class"><rect fill="#F1F1F1" height="32" rx="2.5" ry="2.5" style="stroke:#181818;stroke-width:0.5;" width="89.0869" x="431.5" y="947"/><ellipse cx="446.5" cy="963" fill="#ADD1B2" rx="11" ry="11" style="stroke:#181818;stroke-width:1;"/><path d="M449.4688,968.6406 Q448.8906,968.9375 448.25,969.0781 Q447.6094,969.2344 446.9063,969.2344 Q444.4063,969.2344 443.0781,967.5938 Q441.7656,965.9375 441.7656,962.8125 Q441.7656,959.6875 443.0781,958.0313 Q444.4063,956.375 446.9063,956.375 Q447.6094,956.375 448.25,956.5313 Q448.9063,956.6875 449.4688,956.9844 L449.4688,959.7031 Q448.8438,959.125 448.25,958.8594 Q447.6563,958.5781 447.0313,958.5781 Q445.6875,958.5781 445,959.6563 Q444.3125,960.7188 444.3125,962.8125 Q444.3125,964.9063 445,965.9844 Q445.6875,967.0469 447.0313,967.0469 Q447.6563,967.0469 448.25,966.7813 Q448.8438,966.5 449.4688,965.9219 L449.4688,968.6406 Z " fill="#000000"/><text fill="#000000" font-family="sans-serif" font-size="14" lengthAdjust="spacing" textLength="57.0869" x="460.5" y="967.8467">Relative</text></g><!--class RelativeExceptZero__class--><g class="entity" data-entity="RelativeExceptZero__class" data-source-line="171" data-uid="ent0083" id="entity_RelativeExceptZero__class"><rect fill="#F1F1F1" height="32" rx="2.5" ry="2.5" style="stroke:#181818;stroke-width:0.5;" width="169.4297" x="391.5" y="897"/><ellipse cx="406.5" cy="913" fill="#ADD1B2" rx="11" ry="11" style="stroke:#181818;stroke-width:1;"/><path d="M409.4688,918.6406 Q408.8906,918.9375 408.25,919.0781 Q407.6094,919.2344 406.9063,919.2344 Q404.4063,919.2344 403.0781,917.5938 Q401.7656,915.9375 401.7656,912.8125 Q401.7656,909.6875 403.0781,908.0313 Q404.4063,906.375 406.9063,906.375 Q407.6094,906.375 408.25,906.5313 Q408.9063,906.6875 409.4688,906.9844 L409.4688,909.7031 Q408.8438,909.125 408.25,908.8594 Q407.6563,908.5781 407.0313,908.5781 Q405.6875,908.5781 405,909.6563 Q404.3125,910.7188 404.3125,912.8125 Q404.3125,914.9063 405,915.9844 Q405.6875,917.0469 407.0313,917.0469 Q407.6563,917.0469 408.25,916.7813 Q408.8438,916.5 409.4688,915.9219 L409.4688,918.6406 Z " fill="#000000"/><text fill="#000000" font-family="sans-serif" font-size="14" lengthAdjust="spacing" textLength="137.4297" x="420.5" y="917.8467">RelativeExceptZero</text></g><g class="link" data-entity-1="Generator__class" data-entity-2="Generator__class" data-uid="lnk11" id="link_Generator__class_Generator__class"><polygon fill="none" points="109.7227,432.1254,118.5151,448.9389,126.8447,440.3008,109.7227,432.1254" style="stroke:#516F42;stroke-width:1;"/><path d="M122.6799,444.6199 C154.8821,475.672 212.1961,530.9391 244.345,561.9398" fill="none" style="stroke:#516F42;stroke-width:1;"/></g><g class="link" data-entity-1="Generator__class" data-entity-2="Negative__class" data-uid="lnk13" id="link_Generator__class_Negative__class"><polygon fill="none" points="267.3768,594.1298,266.6958,613.0913,278.2088,609.7076,267.3768,594.1298" style="stroke:#516F42;stroke-width:1;"/><path d="M272.4523,611.3994 C283.6899,649.6359 312.2177,728.9711 376.5,778 C391.3699,789.3415 410.8133,795.577 428.4933,798.9905" fill="none" style="stroke:#516F42;stroke-width:1;"/></g><g class="link" data-entity-1="Generator__class" data-entity-2="NegativeExceptZero__class" data-uid="lnk15" id="link_Generator__class_NegativeExceptZero__class"><polygon fill="none" points="270.6963,594.4508,273.3182,613.2424,284.0688,607.911,270.6963,594.4508" style="stroke:#516F42;stroke-width:1;"/><path d="M278.6935,610.5767 C294.1377,641.7192 323.9814,693.1544 376.5,728 C381.6455,731.414 387.2251,734.3617 393.0241,736.9069" fill="none" style="stroke:#516F42;stroke-width:1;"/></g><g class="link" data-entity-1="Generator__class" data-entity-2="NegativeFraction__class" data-uid="lnk17" id="link_Generator__class_NegativeFraction__class"><polygon fill="none" points="276.6742,594.119,284.1417,611.5614,293.1136,603.5925,276.6742,594.119" style="stroke:#516F42;stroke-width:1;"/><path d="M288.6276,607.5769 C308.3853,629.8214 335.1536,656.1898 376.5,678 C383.8343,681.8688 391.7956,685.1598 399.9066,687.9546" fill="none" style="stroke:#516F42;stroke-width:1;"/></g><g class="link" data-entity-1="Generator__class" data-entity-2="Positive__class" data-uid="lnk19" id="link_Generator__class_Positive__class"><polygon fill="none" points="295.6948,594.1394,309.3877,607.2735,314.5296,596.4309,295.6948,594.1394" style="stroke:#516F42;stroke-width:1;"/><path d="M311.9586,601.8522 C334.3288,612.4609 348.6095,618.3921 376.5,628 C394.6822,634.2635 415.2381,639.7255 432.8502,643.933" fill="none" style="stroke:#516F42;stroke-width:1;"/></g><g class="link" data-entity-1="Generator__class" data-entity-2="PositiveExceptZero__class" data-uid="lnk21" id="link_Generator__class_PositiveExceptZero__class"><polygon fill="none" points="313.5099,583.9564,330.6834,592.0231,332.0888,580.1057,313.5099,583.9564" style="stroke:#516F42;stroke-width:1;"/><path d="M331.3861,586.0644 C354.9005,588.8373 365.6126,590.1005 392.1624,593.2314" fill="none" style="stroke:#516F42;stroke-width:1;"/></g><g class="link" data-entity-1="Generator__class" data-entity-2="PositiveFraction__class" data-uid="lnk23" id="link_Generator__class_PositiveFraction__class"><polygon fill="none" points="313.5099,572.0436,332.0888,575.8943,330.6834,563.9769,313.5099,572.0436" style="stroke:#516F42;stroke-width:1;"/><path d="M331.3861,569.9356 C358.5747,566.7294 374.6702,564.8313 404.4312,561.3218" fill="none" style="stroke:#516F42;stroke-width:1;"/></g><g class="link" data-entity-1="Generator__class" data-entity-2="Relative__class" data-uid="lnk25" id="link_Generator__class_Relative__class"><polygon fill="none" points="295.6948,561.8606,314.5296,559.5691,309.3877,548.7265,295.6948,561.8606" style="stroke:#516F42;stroke-width:1;"/><path d="M311.9586,554.1478 C334.3288,543.5391 348.6095,537.6079 376.5,528 C394.1817,521.9089 414.1084,516.5758 431.3894,512.4173" fill="none" style="stroke:#516F42;stroke-width:1;"/></g><g class="link" data-entity-1="Generator__class" data-entity-2="RelativeExceptZero__class" data-uid="lnk27" id="link_Generator__class_RelativeExceptZero__class"><polygon fill="none" points="276.6742,561.881,293.1136,552.4075,284.1417,544.4386,276.6742,561.881" style="stroke:#516F42;stroke-width:1;"/><path d="M288.6276,548.4231 C308.3853,526.1786 335.1536,499.8102 376.5,478 C382.976,474.5839 389.9409,471.6184 397.066,469.0471" fill="none" style="stroke:#516F42;stroke-width:1;"/></g><g class="link" data-entity-1="Generator__class" data-entity-2="RelativeFraction__class" data-uid="lnk29" id="link_Generator__class_RelativeFraction__class"><polygon fill="none" points="270.6963,561.5492,284.0688,548.089,273.3182,542.7576,270.6963,561.5492" style="stroke:#516F42;stroke-width:1;"/><path d="M278.6935,545.4233 C294.1377,514.2808 323.9814,462.8456 376.5,428 C384.5122,422.684 393.5772,418.4984 402.8836,415.2028" fill="none" style="stroke:#516F42;stroke-width:1;"/></g><g class="link" data-entity-1="Generator__class" data-entity-2="Generator__class" data-uid="lnk32" id="link_Generator__class_Generator__class"><polygon fill="none" points="109.7227,399.775,126.8195,391.547,118.4633,382.9346,109.7227,399.775" style="stroke:#516F42;stroke-width:1;"/><path d="M122.6414,387.2408 C154.8436,355.997 212.1961,300.3514 244.345,269.1594" fill="none" style="stroke:#516F42;stroke-width:1;"/></g><g class="link" data-entity-1="Generator__class" data-entity-2="Negative__class" data-uid="lnk34" id="link_Generator__class_Negative__class"><polygon fill="none" points="295.6948,269.1394,309.3877,282.2735,314.5296,271.4309,295.6948,269.1394" style="stroke:#516F42;stroke-width:1;"/><path d="M311.9586,276.8522 C334.3288,287.4609 348.6095,293.3921 376.5,303 C393.1809,308.7463 411.8597,313.818 428.4303,317.8653" fill="none" style="stroke:#516F42;stroke-width:1;"/></g><g class="link" data-entity-1="Generator__class" data-entity-2="Positive__class" data-uid="lnk36" id="link_Generator__class_Positive__class"><polygon fill="none" points="313.5099,258.9564,330.6834,267.0231,332.0888,255.1057,313.5099,258.9564" style="stroke:#516F42;stroke-width:1;"/><path d="M331.3861,261.0644 C367.76,265.3538 398.3982,268.9668 432.7288,273.0152" fill="none" style="stroke:#516F42;stroke-width:1;"/></g><g class="link" data-entity-1="Generator__class" data-entity-2="PositiveExceptZero__class" data-uid="lnk38" id="link_Generator__class_PositiveExceptZero__class"><polygon fill="none" points="313.5099,247.0436,332.0888,250.8943,330.6834,238.9769,313.5099,247.0436" style="stroke:#516F42;stroke-width:1;"/><path d="M331.3861,244.9356 C354.9005,242.1627 365.6126,240.8995 392.1624,237.7686" fill="none" style="stroke:#516F42;stroke-width:1;"/></g><g class="link" data-entity-1="Generator__class" data-entity-2="Relative__class" data-uid="lnk40" id="link_Generator__class_Relative__class"><polygon fill="none" points="295.6948,236.8606,314.5296,234.5691,309.3877,223.7265,295.6948,236.8606" style="stroke:#516F42;stroke-width:1;"/><path d="M311.9586,229.1478 C334.3288,218.5391 348.6095,212.6079 376.5,203 C394.1817,196.9089 414.1084,191.5758 431.3894,187.4173" fill="none" style="stroke:#516F42;stroke-width:1;"/></g><g class="link" data-entity-1="Generator__class" data-entity-2="RelativeExceptZero__class" data-uid="lnk42" id="link_Generator__class_RelativeExceptZero__class"><polygon fill="none" points="276.6742,236.881,293.1136,227.4075,284.1417,219.4386,276.6742,236.881" style="stroke:#516F42;stroke-width:1;"/><path d="M288.6276,223.4231 C308.3853,201.1786 335.1536,174.8102 376.5,153 C382.976,149.5839 389.9409,146.6184 397.066,144.0471" fill="none" style="stroke:#516F42;stroke-width:1;"/></g><g class="link" data-entity-1="Validator__class" data-entity-2="Validator__class" data-uid="lnk48" id="link_Validator__class_Validator__class"><polygon fill="none" points="139.6425,1176.1806,152.6293,1190.0133,158.3316,1179.4547,139.6425,1176.1806" style="stroke:#516F42;stroke-width:1;"/><path d="M155.4805,1184.734 C202.8586,1217.9681 234.1637,1271.979 251.482,1299.9284" fill="none" style="stroke:#516F42;stroke-width:1;"/></g><g class="link" data-entity-1="Strategy__interface" data-entity-2="Validator__class" data-uid="lnk49" id="link_Strategy__interface_Validator__class"><polygon fill="none" points="138.0209,1316,156.0209,1322,156.0209,1310,138.0209,1316" style="stroke:#516F42;stroke-width:1;"/><path d="M156.0209,1316 C179.6392,1316 190.5401,1316 214.3892,1316" fill="none" style="stroke:#516F42;stroke-width:1;stroke-dasharray:7,7;"/></g><g class="link" data-entity-1="Validator__class" data-entity-2="Negative__class" data-uid="lnk51" id="link_Validator__class_Negative__class"><polygon fill="none" points="309.5535,1323.1343,325.3241,1333.6837,328.4996,1322.1114,309.5535,1323.1343" style="stroke:#516F42;stroke-width:1;"/><path d="M326.9118,1327.8976 C337.5955,1330.8292 331.1838,1330.1934 340.5,1336 C361.3645,1349.0045 359.8637,1359.8981 376.5,1378 C404.3677,1408.3227 438.3682,1442.1906 458.2594,1461.7081" fill="none" style="stroke:#516F42;stroke-width:1;"/></g><g class="link" data-entity-1="Negative__class" data-entity-2="OnlyNegative__class" data-uid="lnk53" id="link_Negative__class_OnlyNegative__class"><polygon fill="none" points="523.591,1487.9981,539.9315,1497.6412,542.4493,1485.9083,523.591,1487.9981" style="stroke:#516F42;stroke-width:1;"/><path d="M541.1904,1491.7748 C576.6489,1499.3839 608.2191,1506.1586 647.1567,1514.5143" fill="none" style="stroke:#516F42;stroke-width:1;"/></g><g class="link" data-entity-1="Negative__class" data-entity-2="OnlyNegativeFractions__class" data-uid="lnk55" id="link_Negative__class_OnlyNegativeFractions__class"><polygon fill="none" points="523.591,1478,541.591,1484,541.591,1472,523.591,1478" style="stroke:#516F42;stroke-width:1;"/><path d="M541.591,1478 C567.8861,1478 583.7213,1478 615.3323,1478" fill="none" style="stroke:#516F42;stroke-width:1;"/></g><g class="link" data-entity-1="Validator__class" data-entity-2="Positive__class" data-uid="lnk57" id="link_Validator__class_Positive__class"><polygon fill="none" points="309.5243,1324.1198,326.2247,1333.1252,328.2878,1321.3039,309.5243,1324.1198" style="stroke:#516F42;stroke-width:1;"/><path d="M327.2563,1327.2145 C364.0659,1333.6389 397.2913,1339.4376 432.8998,1345.6523" fill="none" style="stroke:#516F42;stroke-width:1;"/></g><g class="link" data-entity-1="Positive__class" data-entity-2="OnlyPositive__class" data-uid="lnk59" id="link_Positive__class_OnlyPositive__class"><polygon fill="none" points="516.6326,1369.0117,531.2007,1381.1677,535.5807,1369.9957,516.6326,1369.0117" style="stroke:#516F42;stroke-width:1;"/><path d="M533.3907,1375.5817 C559.9756,1386.0043 579.1554,1392.9153 611.5,1403 C624.3008,1406.9912 638.1824,1410.8159 651.3749,1414.2214" fill="none" style="stroke:#516F42;stroke-width:1;"/></g><g class="link" data-entity-1="Positive__class" data-entity-2="OnlyPositiveExceptZero__class" data-uid="lnk61" id="link_Positive__class_OnlyPositiveExceptZero__class"><polygon fill="none" points="519.1945,1357.5273,536.4517,1365.4134,537.7319,1353.4819,519.1945,1357.5273" style="stroke:#516F42;stroke-width:1;"/><path d="M537.0918,1359.4476 C562.7955,1362.2055 578.8841,1363.9318 611.0445,1367.3825" fill="none" style="stroke:#516F42;stroke-width:1;"/></g><g class="link" data-entity-1="Positive__class" data-entity-2="OnlyPositiveFractions__class" data-uid="lnk63" id="link_Positive__class_OnlyPositiveFractions__class"><polygon fill="none" points="519.1945,1348.4727,537.7319,1352.5181,536.4517,1340.5866,519.1945,1348.4727" style="stroke:#516F42;stroke-width:1;"/><path d="M537.0918,1346.5524 C565.0249,1343.5553 584.842,1341.429 619.365,1337.7248" fill="none" style="stroke:#516F42;stroke-width:1;"/></g><g class="link" data-entity-1="Validator__class" data-entity-2="Relative__class" data-uid="lnk65" id="link_Validator__class_Relative__class"><polygon fill="none" points="309.5243,1307.6607,328.3005,1310.3908,326.1833,1298.5791,309.5243,1307.6607" style="stroke:#516F42;stroke-width:1;"/><path d="M327.2419,1304.4849 C363.564,1297.9744 395.9439,1292.1704 431.4769,1285.8013" fill="none" style="stroke:#516F42;stroke-width:1;"/></g><g class="link" data-entity-1="Relative__class" data-entity-2="RelativeExceptZero__class" data-uid="lnk67" id="link_Relative__class_RelativeExceptZero__class"><polygon fill="none" points="520.5522,1278,538.5522,1284,538.5522,1272,520.5522,1278" style="stroke:#516F42;stroke-width:1;"/><path d="M538.5522,1278 C568.1883,1278 590.363,1278 626.0906,1278" fill="none" style="stroke:#516F42;stroke-width:1;"/></g><g class="link" data-entity-1="Relative__class" data-entity-2="RelativeFractions__class" data-uid="lnk69" id="link_Relative__class_RelativeFractions__class"><polygon fill="none" points="520.5522,1268.654,539.4104,1270.7438,536.8926,1259.0109,520.5522,1268.654" style="stroke:#516F42;stroke-width:1;"/><path d="M538.1515,1264.8774 C570.2903,1257.9806 597.2233,1252.201 635.0375,1244.0864" fill="none" style="stroke:#516F42;stroke-width:1;"/></g><g class="link" data-entity-1="Validator__class" data-entity-2="Validator__class" data-uid="lnk73" id="link_Validator__class_Validator__class"><polygon fill="none" points="139.6623,1145.282,158.4538,1142.6591,153.1217,1131.9088,139.6623,1145.282" style="stroke:#516F42;stroke-width:1;"/><path d="M155.7877,1137.2839 C196.3067,1112.7567 227.0639,1076.2574 247.0954,1054.0281" fill="none" style="stroke:#516F42;stroke-width:1;"/></g><g class="link" data-entity-1="Strategy__interface" data-entity-2="Validator__class" data-uid="lnk74" id="link_Strategy__interface_Validator__class"><polygon fill="none" points="138.0209,1038,156.0209,1044,156.0209,1032,138.0209,1038" style="stroke:#516F42;stroke-width:1;"/><path d="M156.0209,1038 C179.6392,1038 190.5401,1038 214.3892,1038" fill="none" style="stroke:#516F42;stroke-width:1;stroke-dasharray:7,7;"/></g><g class="link" data-entity-1="Validator__class" data-entity-2="OnlyNegative__class" data-uid="lnk76" id="link_Validator__class_OnlyNegative__class"><polygon fill="none" points="295.6948,1054.1394,309.3877,1067.2735,314.5296,1056.4309,295.6948,1054.1394" style="stroke:#516F42;stroke-width:1;"/><path d="M311.9586,1061.8522 C334.3288,1072.4609 348.6095,1078.3921 376.5,1088 C387.9264,1091.9362 400.2903,1095.5559 412.2719,1098.7466" fill="none" style="stroke:#516F42;stroke-width:1;"/></g><g class="link" data-entity-1="Validator__class" data-entity-2="OnlyPositive__class" data-uid="lnk78" id="link_Validator__class_OnlyPositive__class"><polygon fill="none" points="309.5243,1043.4864,326.6978,1051.5531,328.1031,1039.6357,309.5243,1043.4864" style="stroke:#516F42;stroke-width:1;"/><path d="M327.4004,1045.5944 C358.847,1049.3027 382.7431,1052.1206 416.4496,1056.0955" fill="none" style="stroke:#516F42;stroke-width:1;"/></g><g class="link" data-entity-1="Validator__class" data-entity-2="OnlyPositiveExceptZero__class" data-uid="lnk80" id="link_Validator__class_OnlyPositiveExceptZero__class"><polygon fill="none" points="309.5243,1032.5136,328.1031,1036.3643,326.6978,1024.4469,309.5243,1032.5136" style="stroke:#516F42;stroke-width:1;"/><path d="M327.4004,1030.4056 C347.146,1028.0771 353.0864,1027.3766 376.421,1024.6249" fill="none" style="stroke:#516F42;stroke-width:1;"/></g><g class="link" data-entity-1="Validator__class" data-entity-2="Relative__class" data-uid="lnk82" id="link_Validator__class_Relative__class"><polygon fill="none" points="295.6948,1021.8606,314.5296,1019.5691,309.3877,1008.7265,295.6948,1021.8606" style="stroke:#516F42;stroke-width:1;"/><path d="M311.9586,1014.1478 C334.3288,1003.5391 348.6095,997.6079 376.5,988 C394.1817,981.9089 414.1084,976.5758 431.3894,972.4173" fill="none" style="stroke:#516F42;stroke-width:1;"/></g><g class="link" data-entity-1="Validator__class" data-entity-2="RelativeExceptZero__class" data-uid="lnk84" id="link_Validator__class_RelativeExceptZero__class"><polygon fill="none" points="276.6742,1021.881,293.1136,1012.4075,284.1417,1004.4386,276.6742,1021.881" style="stroke:#516F42;stroke-width:1;"/><path d="M288.6276,1008.4231 C308.3853,986.1786 335.1536,959.8102 376.5,938 C382.976,934.5839 389.9409,931.6184 397.066,929.0471" fill="none" style="stroke:#516F42;stroke-width:1;"/></g><!--SRC=[tPXBRzD0483l_XL3UW69Gq50BrKbA0GuKAgs0Wb5YgRsn5bblMljRcajrF_Esh6TE9k89FWHDxTvT6Q_zNXct6UnmZ12u9Z8EmCw8eC2FG3GCoPYL1Z1UwNa_RdaKi7HsrVl9czUL-te6_QRcUI3L06fRHpHduLAteaWTvval_NE7nb6KWHR1o_yjycXfnZ8UoP2c23Nv7cRJGiBPu9C4XD8PQRIcxA0WABO911HT4jAUvmc1em4nSAfWO0ficUJmjDaG614EaQVhYaDP-pHHYFFAzNm3PKlpwNGBEHCZaP3d96wdCONTsdmByHZcmB-f200FaUjOJ3a4iqLYf06W1eMudWyzx2_-LyyUe__cUkhMCfK23NcoTFyP6QQkUNM0QJvLhNZiL7839oUmlERbqV3uSd9yV4BkCcKPsVx7sOqibo1ZF88UAjj8j-Kn_jCWhAdbrr3ATLn3qLgQqwVuzude0T38j2sl7PCwyQgcQL0kA0GxKixBwL2g04WozK1nwS7dsBpYvIi42tKFMORfiLdcrY5h53saEjIQbRMNY7qc6EbzbnrZzagjRUgx27N5V55tok47dEir9whxZ5RfVPMbGVEPRSp2aazaGsYIjFq3f5dQvMbgPdK9KiRSwaBlgPwU9SiRVJnPlX-86S1fYrvKxFBFV9cLqhrVB0jqbU72REmQf866bpRurZo94jV2EFnmgE9_BlVmixFTJcr6uz5CQU8XDapOZuTrzrN6zTLzt1PW-RUMGDW1SztmPCAqxAYNYudQajOnMgc7RxIqZzGfp3htXGEeJ0hJCkAUhcSg2rXhGpNzQQdWUg-Wuwblw1rBtvTltfjB7zh69sRQm6nMfUEjX-0rHM-Ymtp7_zMwDkEMNwHDBXbhl_kQcCTA-aQQogRsPgUw8V0rkPOxugtoP7NDLDROsyhphy0]--></g></svg>